<svg width="235" height="235" viewBox="0 0 235 235" fill="none" xmlns="http://www.w3.org/2000/svg">
<g clip-path="url(#clip0_304_71)">
<path d="M107.72 66.0965L107.74 90.7825C101.653 91.9319 95.6333 93.2276 89.68 94.6699C83.18 96.2402 77.52 98.7329 71.6 101.665C61.92 106.467 53.6533 113.327 46.8 122.244C33.01 140.187 32.39 164.818 47.5 182.037C62.41 199.036 86.58 206.866 107.74 209.37L107.82 234.55C88.02 231.241 68.85 225.212 50.31 216.464C27.72 205.812 1.84 185.617 0 155.803V149.313C1.66 128.339 13.55 110.208 28.54 97.6568C46.6333 82.4879 67.1167 72.6999 89.99 68.2928C94.5967 67.3996 100.507 66.6675 107.72 66.0965Z" fill="#CCCCCC"/>
<path d="M235 79.4168V119.696L234.5 122.409C234.427 122.804 234.207 122.998 233.84 122.991C229.307 122.947 224.773 122.961 220.24 123.035C204.8 123.298 189.34 122.793 173.9 122.76C172.47 122.76 170.86 123.331 169.35 123.408C169.227 123.415 169.106 123.374 169.007 123.294C168.909 123.213 168.838 123.098 168.809 122.967C168.779 122.835 168.792 122.697 168.845 122.575C168.898 122.453 168.988 122.356 169.1 122.299C175.833 118.836 182.143 114.605 188.03 109.604C188.099 109.545 188.154 109.468 188.188 109.379C188.223 109.291 188.236 109.194 188.227 109.099C188.218 109.004 188.187 108.914 188.137 108.837C188.086 108.76 188.019 108.699 187.94 108.66C173.727 101.478 158.84 96.328 143.28 93.2093L143.29 66.942C166.55 70.0388 187.967 77.5354 207.54 89.4318C212.44 92.4077 214.17 90.486 218.79 87.3234C224.017 83.7581 229.077 79.9366 233.97 75.8589C234.357 75.5368 234.58 75.6392 234.64 76.1663L235 79.4168Z" fill="#CCCCCC"/>
<path d="M112.092 194.269C104.624 196.206 96.7395 195.81 89.5042 193.133C82.2689 190.457 76.0308 185.631 71.6324 179.305C68.9329 175.534 67.0152 171.263 65.9917 166.743C64.9682 162.223 64.8594 157.544 65.6719 152.982C65.9468 151.484 66.3256 150.007 66.8054 148.561L67.6987 145.838L70.1314 147.619C75.7442 151.737 82.0206 154.868 88.6898 156.878L90.4529 157.411L90.291 159.169C90.0768 161.666 90.7555 164.158 92.2069 166.203C93.5312 168.11 95.4106 169.566 97.5908 170.372C99.7709 171.179 102.147 171.299 104.397 170.714C105.427 170.441 106.409 170.013 107.308 169.444L154.764 139.261C155.925 138.532 156.921 137.569 157.689 136.434C158.457 135.299 158.979 134.017 159.223 132.67C159.466 131.294 159.433 129.884 159.124 128.522C158.816 127.159 158.238 125.872 157.425 124.735C156.101 122.828 154.222 121.373 152.042 120.565C149.862 119.758 147.486 119.637 145.235 120.22C144.205 120.493 143.224 120.922 142.324 121.491L124.215 133.009C121.235 134.898 117.983 136.322 114.572 137.232C107.103 139.169 99.2193 138.773 91.9839 136.097C84.7486 133.421 78.5106 128.594 74.1123 122.268C71.4121 118.497 69.4938 114.226 68.4699 109.706C67.446 105.186 67.3373 100.507 68.15 95.9448C68.9564 91.4714 70.6898 87.2153 73.2391 83.4485C75.7884 79.6818 79.0975 76.4873 82.9549 74.0696L130.416 43.8927C133.395 42.0009 136.647 40.5751 140.059 39.6647C147.527 37.7278 155.411 38.1241 162.646 40.8001C169.882 43.4761 176.12 48.3029 180.518 54.6288C183.218 58.3995 185.136 62.6702 186.16 67.1903C187.183 71.7104 187.293 76.3889 186.48 80.9516C186.203 82.4492 185.824 83.9261 185.345 85.3721L184.452 88.0951L182.021 86.3179C176.408 82.1997 170.132 79.0685 163.462 77.0595L161.697 76.5258L161.861 74.7685C162.075 72.2701 161.397 69.7767 159.947 67.7285C158.623 65.8217 156.743 64.3665 154.563 63.5598C152.383 62.753 150.007 62.6334 147.757 63.2173C146.727 63.4905 145.745 63.919 144.846 64.488L97.3778 94.6722C96.2166 95.4011 95.2205 96.3636 94.4533 97.4982C93.6861 98.6329 93.1645 99.9148 92.9219 101.262C92.6773 102.638 92.71 104.048 93.018 105.411C93.3261 106.773 93.9033 108.061 94.7159 109.199C96.0407 111.105 97.9199 112.561 100.1 113.368C102.28 114.175 104.655 114.296 106.906 113.714C107.936 113.44 108.917 113.011 109.817 112.443L127.925 100.93C130.904 99.0374 134.156 97.612 137.568 96.7036C145.036 94.7666 152.92 95.1628 160.155 97.8389C167.39 100.515 173.627 105.342 178.025 111.668C180.726 115.438 182.644 119.709 183.668 124.229C184.692 128.749 184.8 133.428 183.988 137.991C183.183 142.464 181.452 146.72 178.904 150.488C176.357 154.256 173.051 157.453 169.195 159.873L121.735 190.041C118.756 191.933 115.504 193.359 112.092 194.269Z" fill="#FF3E00"/>
<path d="M143.29 66.942L143.28 93.2093L143.26 208.008C143.26 208.509 143.146 209.003 142.927 209.442C142.709 209.882 142.393 210.253 142.01 210.523L107.82 234.55L107.74 209.37V90.7825L107.72 66.0965L107.75 26.0696C107.75 25.7835 107.816 25.5017 107.942 25.2503C108.067 24.9989 108.249 24.7859 108.47 24.6311L142.69 0.494148C142.751 0.452524 142.821 0.429162 142.893 0.426521C142.964 0.42388 143.035 0.442057 143.098 0.47914C143.16 0.516223 143.212 0.570842 143.247 0.637253C143.283 0.703663 143.301 0.779412 143.3 0.856531L143.29 66.942Z" fill="#FF3E00"/>
</g>
<defs>
<clipPath id="clip0_304_71">
<rect width="235" height="235" fill="white"/>
</clipPath>
</defs>
</svg>
